<svg width="1920" height="654" viewBox="0 0 1920 654" fill="none" xmlns="http://www.w3.org/2000/svg">
<path d="M126.705 293.486L116 282.781L152.751 267.44L126.705 293.486ZM136.363 303.144L130.217 296.998L164.808 262.406L185.91 253.597L136.363 303.144ZM146.022 312.804L139.876 306.657L197.971 248.563L219.073 239.753L146.022 312.804ZM155.682 322.463L149.534 316.316L231.13 234.72L252.234 225.91L155.682 322.463ZM165.34 332.121L159.194 325.975L264.291 220.877L285.394 212.068L165.34 332.121ZM174.999 341.78L168.852 335.633L297.451 207.035L318.553 198.225L174.999 341.78ZM184.658 351.439L178.511 345.292L330.61 193.192L351.714 184.382L184.658 351.439ZM194.316 361.097L188.17 354.951L363.772 179.349L384.874 170.54L194.316 361.097ZM203.975 370.757L197.829 364.61L396.933 165.506L418.035 156.697L203.975 370.757ZM213.634 380.415L207.487 374.269L430.093 151.663L451.195 142.854L213.634 380.415ZM493.398 167.97L247.293 414.075L217.146 383.927L463.252 137.822L515.001 116.22L493.398 167.97ZM479.556 201.129L256.952 423.733L250.806 417.587L488.364 180.03L479.556 201.129ZM465.713 234.29L266.611 433.392L260.465 427.246L474.522 213.189L465.713 234.29ZM451.872 267.449L276.269 443.051L270.123 436.904L460.68 246.347L451.872 267.449ZM438.028 300.61L285.929 452.71L279.782 446.563L446.838 279.506L438.028 300.61ZM424.186 333.77L295.587 462.368L289.441 456.222L432.995 312.668L424.186 333.77ZM410.344 366.928L305.246 472.027L299.1 465.881L419.152 345.829L410.344 366.928ZM396.5 400.091L314.905 481.686L308.758 475.54L405.31 378.989L396.5 400.091ZM382.658 433.25L324.563 491.345L318.417 485.198L391.467 412.148L382.658 433.25ZM368.814 466.412L334.223 501.004L328.075 494.857L377.625 445.307L368.814 466.412ZM348.439 515.22L337.735 504.516L363.781 478.47L348.439 515.22Z" fill="black"/>
<path d="M759.01 323.72L760.27 235.52H756.91L698.11 386.3L639.31 235.52H635.95L637.21 323.72V464H595.63V170.84H653.17L698.11 287.18H701.05L746.41 170.84H800.59V464H759.01V323.72ZM887.366 170.84V351.02C887.366 363.06 887.646 373.98 888.206 383.78C889.046 393.58 891.146 401.98 894.506 408.98C897.866 415.7 902.906 420.88 909.626 424.52C916.346 428.16 925.586 429.98 937.346 429.98C949.106 429.98 958.346 428.16 965.066 424.52C971.786 420.88 976.826 415.7 980.186 408.98C983.546 401.98 985.506 393.58 986.066 383.78C986.906 373.98 987.326 363.06 987.326 351.02V170.84H1034.37V342.62C1034.37 363.62 1033.11 382.1 1030.59 398.06C1028.35 413.74 1023.73 426.9 1016.73 437.54C1009.73 447.9 999.786 455.74 986.906 461.06C974.306 466.38 957.786 469.04 937.346 469.04C916.906 469.04 900.246 466.38 887.366 461.06C874.766 455.74 864.966 447.9 857.966 437.54C850.966 426.9 846.206 413.74 843.686 398.06C841.446 382.1 840.326 363.62 840.326 342.62V170.84H887.366ZM1085.44 170.84H1186.66C1213.26 170.84 1233.84 177.7 1248.4 191.42C1263.24 205.14 1270.66 223.9 1270.66 247.7C1270.66 264.78 1266.46 278.36 1258.06 288.44C1249.66 298.52 1238.32 305.66 1224.04 309.86V311.96C1241.12 315.88 1254.84 323.44 1265.2 334.64C1275.56 345.56 1280.74 361.1 1280.74 381.26C1280.74 393.3 1278.78 404.36 1274.86 414.44C1270.94 424.52 1265.34 433.34 1258.06 440.9C1250.78 448.18 1241.96 453.92 1231.6 458.12C1221.52 462.04 1210.32 464 1198 464H1085.44V170.84ZM1183.72 427.88C1199.4 427.88 1211.44 424.66 1219.84 418.22C1228.24 411.78 1232.44 401.42 1232.44 387.14V372.02C1232.44 357.74 1228.24 347.38 1219.84 340.94C1211.44 334.5 1199.4 331.28 1183.72 331.28H1131.64V427.88H1183.72ZM1177 296.84C1191.84 296.84 1203.04 294.04 1210.6 288.44C1218.44 282.56 1222.36 272.9 1222.36 259.46V244.34C1222.36 230.9 1218.44 221.38 1210.6 215.78C1203.04 209.9 1191.84 206.96 1177 206.96H1131.64V296.84H1177ZM1323.42 464V428.3H1392.3V206.54H1323.42V170.84H1508.22V206.54H1439.34V428.3H1508.22V464H1323.42ZM1678.57 210.32V464H1631.53V210.32H1539.55V170.84H1770.55V210.32H1678.57Z" fill="black"/>
</svg>
